<svg width="96" height="24" viewBox="0 0 96 24" xmlns="http://www.w3.org/2000/svg">
    <path d="M83.338 23.58a8.05 8.05 0 0 1-4.301-3.348 8.94 8.94 0 0 1 .571-10.512c2.256-2.734 6.533-4.202 10.764-1.637v-.871h4.9v16.38h-4.9v-.965c-1.447.905-2.94 1.373-4.478 1.373a8.2 8.2 0 0 1-2.556-.42zm2.872-12.336c-2.31.02-4.183 1.894-4.154 4.162.029 2.263 1.94 4.116 4.231 4.101a4.2 4.2 0 0 0 4.085-3.439v-1.392a4.14 4.14 0 0 0-4.128-3.432h-.034zm-51.384 12.54a8.078 8.078 0 0 1-5.212-3.83 8.911 8.911 0 0 1 .72-10.2C32.99 6.542 36.562 5.98 41.17 8.076l.052-.62v-.24h4.901v16.376h-4.9v-.307l-.044-.682c-1.457.893-2.966 1.392-4.55 1.392a7.763 7.763 0 0 1-1.805-.213l.002.002zm-1.996-8.472a4.16 4.16 0 0 0 4.116 4.198c2.284.028 4.214-1.824 4.243-4.083.029-2.28-1.817-4.145-4.135-4.176h-.063c-2.301 0-4.133 1.783-4.161 4.063v-.002zm-11.21 8.28V0h4.9v23.592h-4.9zm-21.62 0V0h5.333v23.592H0zm13.67-.038s-5.22-7.419-7.694-10.95a1.248 1.248 0 0 1-.072-.266c4.349-2.796 7.116-6.7 7.224-12.319h5.112a18.92 18.92 0 0 1-1.342 7.21 19.214 19.214 0 0 1-3.9 6.115l7.172 10.21h-6.5zm46.198-.058V7.241h4.687v1.675c1.135-1.34 2.407-1.946 3.881-2.12 3.3-.383 6.696 1.311 7.45 4.945.096.49.146.989.144 1.488.014 3.254.007 6.506.004 9.76 0 .145-.024.291-.045.497h-4.683c0-2.496.008-4.92-.004-7.346.01-.7-.025-1.4-.104-2.095-.23-1.738-1.284-2.681-2.983-2.736-1.761-.058-3.153.984-3.468 2.62-.077.418-.113.84-.11 1.268-.01 2.477-.005 4.953-.005 7.43v.869h-4.764zm-11.544-.007-.002-16.27h4.84v1.932c1.359-1.332 2.808-1.968 4.553-1.944v4.536c-1.06.449-2.057.744-2.928 1.272-1.08.653-1.608 1.728-1.596 3.077.024 2.18.005 4.356.007 6.535v.862h-4.876.002z" fill="#000" fill-rule="nonzero" opacity=".4"/>
</svg>
